<svg version="1.1" viewBox="0.0 0.0 743.0 449.0" fill="none" stroke="none" stroke-linecap="square" stroke-miterlimit="10" width="743" height="449" xmlns:xlink="http://www.w3.org/1999/xlink" xmlns="http://www.w3.org/2000/svg"><path fill="#ffffff" d="M0 0L743.0 0L743.0 449.0L0 449.0L0 0Z" fill-rule="nonzero"/><path stroke="#333333" stroke-width="1.0" stroke-linecap="butt" d="M49.5 374.5L720.5 374.5" fill-rule="nonzero"/><path stroke="#cccccc" stroke-width="1.0" stroke-linecap="butt" d="M49.5 282.5L720.5 282.5" fill-rule="nonzero"/><path stroke="#cccccc" stroke-width="1.0" stroke-linecap="butt" d="M49.5 189.5L720.5 189.5" fill-rule="nonzero"/><path stroke="#cccccc" stroke-width="1.0" stroke-linecap="butt" d="M49.5 97.5L720.5 97.5" fill-rule="nonzero"/><clipPath id="id_0"><path d="M49.45 97.38333L720.55 97.38333L720.55 374.55L49.45 374.55L49.45 97.38333Z" clip-rule="nonzero"/></clipPath><path stroke="#4285f4" stroke-width="2.0" stroke-linecap="butt" clip-path="url(#id_0)" d="M97.38571 374.54803L193.25714 374.5493L289.12857 374.54108L385.0 374.47763L480.87143 373.90247L576.74286 368.1256L672.61426 309.50165" fill-rule="nonzero"/><path stroke="#ea4335" stroke-width="2.0" stroke-linecap="butt" clip-path="url(#id_0)" d="M97.38571 374.5485L193.25714 374.54715L289.12857 374.51443L385.0 374.29745L480.87143 371.50073L576.74286 338.38748L672.61426 118.211" fill-rule="nonzero"/><path fill="#000000" fill-opacity="0.0" clip-path="url(#id_0)" d="M100.38571 374.54803C100.38571 376.20486 99.04257 377.54803 97.38571 377.54803C95.72886 377.54803 94.38571 376.20486 94.38571 374.54803C94.38571 372.89117 95.72886 371.54803 97.38571 371.54803C99.04257 371.54803 100.38571 372.89117 100.38571 374.54803Z" fill-rule="nonzero"/><path fill="#000000" fill-opacity="0.0" clip-path="url(#id_0)" d="M196.25714 374.5493C196.25714 376.20615 194.914 377.5493 193.25714 377.5493C191.6003 377.5493 190.25714 376.20615 190.25714 374.5493C190.25714 372.89246 191.6003 371.5493 193.25714 371.5493C194.914 371.5493 196.25714 372.89246 196.25714 374.5493Z" fill-rule="nonzero"/><path fill="#000000" fill-opacity="0.0" clip-path="url(#id_0)" d="M292.12857 374.54108C292.12857 376.19794 290.78543 377.54108 289.12857 377.54108C287.4717 377.54108 286.12857 376.19794 286.12857 374.54108C286.12857 372.88425 287.4717 371.54108 289.12857 371.54108C290.78543 371.54108 292.12857 372.88425 292.12857 374.54108Z" fill-rule="nonzero"/><path fill="#000000" fill-opacity="0.0" clip-path="url(#id_0)" d="M388.0 374.47763C388.0 376.1345 386.65686 377.47763 385.0 377.47763C383.34314 377.47763 382.0 376.1345 382.0 374.47763C382.0 372.8208 383.34314 371.47763 385.0 371.47763C386.65686 371.47763 388.0 372.8208 388.0 374.47763Z" fill-rule="nonzero"/><path fill="#000000" fill-opacity="0.0" clip-path="url(#id_0)" d="M483.87143 373.90247C483.87143 375.55933 482.5283 376.90247 480.87143 376.90247C479.21457 376.90247 477.87143 375.55933 477.87143 373.90247C477.87143 372.2456 479.21457 370.90247 480.87143 370.90247C482.5283 370.90247 483.87143 372.2456 483.87143 373.90247Z" fill-rule="nonzero"/><path fill="#000000" fill-opacity="0.0" clip-path="url(#id_0)" d="M579.74286 368.1256C579.74286 369.78247 578.3997 371.1256 576.74286 371.1256C575.086 371.1256 573.74286 369.78247 573.74286 368.1256C573.74286 366.46875 575.086 365.1256 576.74286 365.1256C578.3997 365.1256 579.74286 366.46875 579.74286 368.1256Z" fill-rule="nonzero"/><path fill="#000000" fill-opacity="0.0" clip-path="url(#id_0)" d="M675.61426 309.50165C675.61426 311.1585 674.2711 312.50165 672.61426 312.50165C670.95746 312.50165 669.61426 311.1585 669.61426 309.50165C669.61426 307.8448 670.95746 306.50165 672.61426 306.50165C674.2711 306.50165 675.61426 307.8448 675.61426 309.50165Z" fill-rule="nonzero"/><path fill="#000000" fill-opacity="0.0" clip-path="url(#id_0)" d="M100.38571 374.5485C100.38571 376.20535 99.04257 377.5485 97.38571 377.5485C95.72886 377.5485 94.38571 376.20535 94.38571 374.5485C94.38571 372.89163 95.72886 371.5485 97.38571 371.5485C99.04257 371.5485 100.38571 372.89163 100.38571 374.5485Z" fill-rule="nonzero"/><path fill="#000000" fill-opacity="0.0" clip-path="url(#id_0)" d="M196.25714 374.54715C196.25714 376.204 194.914 377.54715 193.25714 377.54715C191.6003 377.54715 190.25714 376.204 190.25714 374.54715C190.25714 372.8903 191.6003 371.54715 193.25714 371.54715C194.914 371.54715 196.25714 372.8903 196.25714 374.54715Z" fill-rule="nonzero"/><path fill="#000000" fill-opacity="0.0" clip-path="url(#id_0)" d="M292.12857 374.51443C292.12857 376.1713 290.78543 377.51443 289.12857 377.51443C287.4717 377.51443 286.12857 376.1713 286.12857 374.51443C286.12857 372.85757 287.4717 371.51443 289.12857 371.51443C290.78543 371.51443 292.12857 372.85757 292.12857 374.51443Z" fill-rule="nonzero"/><path fill="#000000" fill-opacity="0.0" clip-path="url(#id_0)" d="M388.0 374.29745C388.0 375.9543 386.65686 377.29745 385.0 377.29745C383.34314 377.29745 382.0 375.9543 382.0 374.29745C382.0 372.64062 383.34314 371.29745 385.0 371.29745C386.65686 371.29745 388.0 372.64062 388.0 374.29745Z" fill-rule="nonzero"/><path fill="#000000" fill-opacity="0.0" clip-path="url(#id_0)" d="M483.87143 371.50073C483.87143 373.1576 482.5283 374.50073 480.87143 374.50073C479.21457 374.50073 477.87143 373.1576 477.87143 371.50073C477.87143 369.84387 479.21457 368.50073 480.87143 368.50073C482.5283 368.50073 483.87143 369.84387 483.87143 371.50073Z" fill-rule="nonzero"/><path fill="#000000" fill-opacity="0.0" clip-path="url(#id_0)" d="M579.74286 338.38748C579.74286 340.04434 578.3997 341.38748 576.74286 341.38748C575.086 341.38748 573.74286 340.04434 573.74286 338.38748C573.74286 336.73062 575.086 335.38748 576.74286 335.38748C578.3997 335.38748 579.74286 336.73062 579.74286 338.38748Z" fill-rule="nonzero"/><path fill="#000000" fill-opacity="0.0" clip-path="url(#id_0)" d="M675.61426 118.211C675.61426 119.86786 674.2711 121.211 672.61426 121.211C670.95746 121.211 669.61426 119.86786 669.61426 118.211C669.61426 116.554146 670.95746 115.211 672.61426 115.211C674.2711 115.211 675.61426 116.554146 675.61426 118.211Z" fill-rule="nonzero"/><path fill="#000000" d="M375.5625 420.53436L376.6875 420.83124Q376.32812 422.22186 375.40625 422.95624Q374.48438 423.6906 373.14062 423.6906Q371.75 423.6906 370.875 423.1281Q370.0 422.5656 369.54688 421.5031Q369.09375 420.425 369.09375 419.1906Q369.09375 417.84686 369.60938 416.84686Q370.125 415.84686 371.0625 415.33124Q372.01562 414.8156 373.15625 414.8156Q374.4375 414.8156 375.3125 415.47186Q376.20312 416.1281 376.54688 417.3156L375.42188 417.58124Q375.125 416.64374 374.54688 416.22186Q373.98438 415.78436 373.125 415.78436Q372.14062 415.78436 371.46875 416.26874Q370.8125 416.7375 370.53125 417.53436Q370.26562 418.33124 370.26562 419.1906Q370.26562 420.28436 370.57812 421.09686Q370.90625 421.90936 371.57812 422.3156Q372.25 422.72186 373.04688 422.72186Q374.0 422.72186 374.65625 422.175Q375.32812 421.6281 375.5625 420.53436ZM377.90625 420.4406Q377.90625 418.70624 378.85938 417.8781Q379.65625 417.1906 380.8125 417.1906Q382.09375 417.1906 382.90625 418.03436Q383.73438 418.8625 383.73438 420.34686Q383.73438 421.55 383.375 422.2375Q383.01562 422.925 382.3125 423.3156Q381.625 423.6906 380.8125 423.6906Q379.51562 423.6906 378.70312 422.8625Q377.90625 422.01874 377.90625 420.4406ZM378.98438 420.4406Q378.98438 421.6281 379.5 422.22186Q380.03125 422.8156 380.8125 422.8156Q381.60938 422.8156 382.125 422.22186Q382.64062 421.6281 382.64062 420.40936Q382.64062 419.2531 382.10938 418.65936Q381.59375 418.0656 380.8125 418.0656Q380.03125 418.0656 379.5 418.65936Q378.98438 419.2375 378.98438 420.4406ZM389.375 423.55L389.375 422.6281Q388.64062 423.6906 387.39062 423.6906Q386.84375 423.6906 386.35938 423.4875Q385.89062 423.26874 385.65625 422.95624Q385.42188 422.6281 385.32812 422.15936Q385.26562 421.8625 385.26562 421.175L385.26562 417.33124L386.32812 417.33124L386.32812 420.78436Q386.32812 421.59686 386.39062 421.89374Q386.48438 422.3 386.79688 422.55Q387.125 422.78436 387.60938 422.78436Q388.07812 422.78436 388.48438 422.55Q388.90625 422.3 389.07812 421.8781Q389.26562 421.45624 389.26562 420.65936L389.26562 417.33124L390.3125 417.33124L390.3125 423.55L389.375 423.55ZM392.29688 423.55L392.29688 417.33124L393.23438 417.33124L393.23438 418.20624Q393.92188 417.1906 395.21875 417.1906Q395.78125 417.1906 396.25 417.39374Q396.73438 417.59686 396.96875 417.925Q397.20312 418.2531 397.29688 418.6906Q397.34375 418.9875 397.34375 419.72186L397.34375 423.55L396.29688 423.55L396.29688 419.76874Q396.29688 419.1125 396.17188 418.8Q396.04688 418.4875 395.73438 418.3Q395.42188 418.09686 395.0 418.09686Q394.32812 418.09686 393.82812 418.53436Q393.34375 418.95624 393.34375 420.14374L393.34375 423.55L392.29688 423.55ZM401.59375 422.6125L401.75 423.53436Q401.29688 423.6281 400.95312 423.6281Q400.375 423.6281 400.0625 423.45624Q399.75 423.26874 399.60938 422.97186Q399.48438 422.675 399.48438 421.72186L399.48438 418.14374L398.71875 418.14374L398.71875 417.33124L399.48438 417.33124L399.48438 415.78436L400.53125 415.15936L400.53125 417.33124L401.59375 417.33124L401.59375 418.14374L400.53125 418.14374L400.53125 421.78436Q400.53125 422.2375 400.57812 422.3625Q400.64062 422.4875 400.76562 422.5656Q400.89062 422.64374 401.125 422.64374Q401.3125 422.64374 401.59375 422.6125Z" fill-rule="nonzero"/><path fill="#000000" d="M36.95 374.3156Q36.95 372.78436 37.2625 371.8625Q37.575 370.925 38.184376 370.425Q38.809376 369.925 39.746876 369.925Q40.434376 369.925 40.95 370.20624Q41.48125 370.4875 41.825 371.01874Q42.16875 371.53436 42.35625 372.28436Q42.54375 373.03436 42.54375 374.3156Q42.54375 375.83124 42.23125 376.7531Q41.934376 377.675 41.309376 378.1906Q40.7 378.6906 39.746876 378.6906Q38.5125 378.6906 37.79375 377.8Q36.95 376.7375 36.95 374.3156ZM38.028126 374.3156Q38.028126 376.425 38.528126 377.1281Q39.028126 377.83124 39.746876 377.83124Q40.48125 377.83124 40.965626 377.1281Q41.465626 376.425 41.465626 374.3156Q41.465626 372.1906 40.965626 371.5031Q40.48125 370.8 39.73125 370.8Q39.0125 370.8 38.575 371.40936Q38.028126 372.1906 38.028126 374.3156Z" fill-rule="nonzero"/><path fill="#000000" d="M35.496876 285.14548L35.496876 286.1611L29.809376 286.1611Q29.809376 285.7861 29.934376 285.42673Q30.153126 284.8486 30.621876 284.2861Q31.10625 283.7236 32.0125 282.98923Q33.41875 281.83298 33.903126 281.1611Q34.403126 280.48923 34.403126 279.89548Q34.403126 279.27048 33.95 278.8486Q33.496876 278.4111 32.778126 278.4111Q32.0125 278.4111 31.559376 278.86423Q31.10625 279.31735 31.090626 280.12985L30.0125 280.02048Q30.121876 278.80173 30.840626 278.17673Q31.575 277.5361 32.809376 277.5361Q34.04375 277.5361 34.7625 278.2236Q35.48125 278.9111 35.48125 279.92673Q35.48125 280.44235 35.2625 280.94235Q35.059376 281.42673 34.559376 281.98923Q34.075 282.5361 32.95 283.48923Q31.996876 284.2861 31.715626 284.58298Q31.45 284.86423 31.278126 285.14548L35.496876 285.14548ZM36.95 281.92673Q36.95 280.39548 37.2625 279.4736Q37.575 278.5361 38.184376 278.0361Q38.809376 277.5361 39.746876 277.5361Q40.434376 277.5361 40.95 277.81735Q41.48125 278.0986 41.825 278.62985Q42.16875 279.14548 42.35625 279.89548Q42.54375 280.64548 42.54375 281.92673Q42.54375 283.44235 42.23125 284.36423Q41.934376 285.2861 41.309376 285.80173Q40.7 286.30173 39.746876 286.30173Q38.5125 286.30173 37.79375 285.4111Q36.95 284.3486 36.95 281.92673ZM38.028126 281.92673Q38.028126 284.0361 38.528126 284.73923Q39.028126 285.44235 39.746876 285.44235Q40.48125 285.44235 40.965626 284.73923Q41.465626 284.0361 41.465626 281.92673Q41.465626 279.80173 40.965626 279.11423Q40.48125 278.4111 39.73125 278.4111Q39.0125 278.4111 38.575 279.02048Q38.028126 279.80173 38.028126 281.92673Z" fill-rule="nonzero"/><path fill="#000000" d="M33.325 193.77222L33.325 191.70972L29.60625 191.70972L29.60625 190.74097L33.528126 185.17847L34.3875 185.17847L34.3875 190.74097L35.54375 190.74097L35.54375 191.70972L34.3875 191.70972L34.3875 193.77222L33.325 193.77222ZM33.325 190.74097L33.325 186.88159L30.6375 190.74097L33.325 190.74097ZM36.95 189.53784Q36.95 188.00659 37.2625 187.08472Q37.575 186.14722 38.184376 185.64722Q38.809376 185.14722 39.746876 185.14722Q40.434376 185.14722 40.95 185.42847Q41.48125 185.70972 41.825 186.24097Q42.16875 186.75659 42.35625 187.50659Q42.54375 188.25659 42.54375 189.53784Q42.54375 191.05347 42.23125 191.97534Q41.934376 192.89722 41.309376 193.41284Q40.7 193.91284 39.746876 193.91284Q38.5125 193.91284 37.79375 193.02222Q36.95 191.95972 36.95 189.53784ZM38.028126 189.53784Q38.028126 191.64722 38.528126 192.35034Q39.028126 193.05347 39.746876 193.05347Q40.48125 193.05347 40.965626 192.35034Q41.465626 191.64722 41.465626 189.53784Q41.465626 187.41284 40.965626 186.72534Q40.48125 186.02222 39.73125 186.02222Q39.0125 186.02222 38.575 186.63159Q38.028126 187.41284 38.028126 189.53784Z" fill-rule="nonzero"/><path fill="#000000" d="M35.41875 94.89896L34.371876 94.97708Q34.23125 94.35208 33.98125 94.07083Q33.54375 93.61771 32.91875 93.61771Q32.41875 93.61771 32.028126 93.89896Q31.54375 94.27396 31.246876 94.97708Q30.965626 95.66458 30.95 96.94583Q31.325 96.36771 31.871876 96.08646Q32.434376 95.80521 33.04375 95.80521Q34.090626 95.80521 34.825 96.58646Q35.575 97.36771 35.575 98.58646Q35.575 99.39896 35.215626 100.10208Q34.871876 100.78958 34.2625 101.16458Q33.653126 101.52396 32.8875 101.52396Q31.559376 101.52396 30.73125 100.55521Q29.903126 99.58646 29.903126 97.36771Q29.903126 94.86771 30.825 93.74271Q31.621876 92.75833 32.98125 92.75833Q33.996876 92.75833 34.6375 93.33646Q35.29375 93.89896 35.41875 94.89896ZM31.121876 98.60208Q31.121876 99.14896 31.340626 99.64896Q31.575 100.13333 31.98125 100.39896Q32.403126 100.66458 32.871876 100.66458Q33.528126 100.66458 34.0125 100.13333Q34.496876 99.58646 34.496876 98.66458Q34.496876 97.77396 34.0125 97.25833Q33.54375 96.74271 32.825 96.74271Q32.10625 96.74271 31.60625 97.25833Q31.121876 97.77396 31.121876 98.60208ZM36.95 97.14896Q36.95 95.61771 37.2625 94.69583Q37.575 93.75833 38.184376 93.25833Q38.809376 92.75833 39.746876 92.75833Q40.434376 92.75833 40.95 93.03958Q41.48125 93.32083 41.825 93.85208Q42.16875 94.36771 42.35625 95.11771Q42.54375 95.86771 42.54375 97.14896Q42.54375 98.66458 42.23125 99.58646Q41.934376 100.50833 41.309376 101.02396Q40.7 101.52396 39.746876 101.52396Q38.5125 101.52396 37.79375 100.63333Q36.95 99.57083 36.95 97.14896ZM38.028126 97.14896Q38.028126 99.25833 38.528126 99.96146Q39.028126 100.66458 39.746876 100.66458Q40.48125 100.66458 40.965626 99.96146Q41.465626 99.25833 41.465626 97.14896Q41.465626 95.02396 40.965626 94.33646Q40.48125 93.63333 39.73125 93.63333Q39.0125 93.63333 38.575 94.24271Q38.028126 95.02396 38.028126 97.14896Z" fill-rule="nonzero"/><path fill="#000000" d="M94.85446 391.55L93.80759 391.55L93.80759 384.83124Q93.41696 385.1906 92.79196 385.5656Q92.18259 385.925 91.69821 386.09686L91.69821 385.08124Q92.57321 384.65936 93.22946 384.08124Q93.90134 383.4875 94.18259 382.925L94.85446 382.925L94.85446 391.55ZM97.88571 387.3156Q97.88571 385.78436 98.19821 384.8625Q98.51071 383.925 99.12009 383.425Q99.74509 382.925 100.68259 382.925Q101.37009 382.925 101.88571 383.20624Q102.41696 383.4875 102.76071 384.01874Q103.10446 384.53436 103.29196 385.28436Q103.47946 386.03436 103.47946 387.3156Q103.47946 388.83124 103.16696 389.7531Q102.87009 390.675 102.24509 391.1906Q101.63571 391.6906 100.68259 391.6906Q99.44821 391.6906 98.72946 390.8Q97.88571 389.7375 97.88571 387.3156ZM98.96384 387.3156Q98.96384 389.425 99.46384 390.1281Q99.96384 390.83124 100.68259 390.83124Q101.41696 390.83124 101.90134 390.1281Q102.40134 389.425 102.40134 387.3156Q102.40134 385.1906 101.90134 384.5031Q101.41696 383.8 100.66696 383.8Q99.94821 383.8 99.51071 384.40936Q98.96384 385.1906 98.96384 387.3156Z" fill-rule="nonzero"/><path fill="#000000" d="M187.22589 391.55L186.17902 391.55L186.17902 384.83124Q185.78839 385.1906 185.16339 385.5656Q184.55402 385.925 184.06964 386.09686L184.06964 385.08124Q184.94464 384.65936 185.60089 384.08124Q186.27277 383.4875 186.55402 382.925L187.22589 382.925L187.22589 391.55ZM190.25714 387.3156Q190.25714 385.78436 190.56964 384.8625Q190.88214 383.925 191.49152 383.425Q192.11652 382.925 193.05402 382.925Q193.74152 382.925 194.25714 383.20624Q194.78839 383.4875 195.13214 384.01874Q195.47589 384.53436 195.66339 385.28436Q195.85089 386.03436 195.85089 387.3156Q195.85089 388.83124 195.53839 389.7531Q195.24152 390.675 194.61652 391.1906Q194.00714 391.6906 193.05402 391.6906Q191.81964 391.6906 191.10089 390.8Q190.25714 389.7375 190.25714 387.3156ZM191.33527 387.3156Q191.33527 389.425 191.83527 390.1281Q192.33527 390.83124 193.05402 390.83124Q193.78839 390.83124 194.27277 390.1281Q194.77277 389.425 194.77277 387.3156Q194.77277 385.1906 194.27277 384.5031Q193.78839 383.8 193.03839 383.8Q192.31964 383.8 191.88214 384.40936Q191.33527 385.1906 191.33527 387.3156ZM197.25714 387.3156Q197.25714 385.78436 197.56964 384.8625Q197.88214 383.925 198.49152 383.425Q199.11652 382.925 200.05402 382.925Q200.74152 382.925 201.25714 383.20624Q201.78839 383.4875 202.13214 384.01874Q202.47589 384.53436 202.66339 385.28436Q202.85089 386.03436 202.85089 387.3156Q202.85089 388.83124 202.53839 389.7531Q202.24152 390.675 201.61652 391.1906Q201.00714 391.6906 200.05402 391.6906Q198.81964 391.6906 198.10089 390.8Q197.25714 389.7375 197.25714 387.3156ZM198.33527 387.3156Q198.33527 389.425 198.83527 390.1281Q199.33527 390.83124 200.05402 390.83124Q200.78839 390.83124 201.27277 390.1281Q201.77277 389.425 201.77277 387.3156Q201.77277 385.1906 201.27277 384.5031Q200.78839 383.8 200.03839 383.8Q199.31964 383.8 198.88214 384.40936Q198.33527 385.1906 198.33527 387.3156Z" fill-rule="nonzero"/><path fill="#000000" d="M279.59732 391.55L278.55045 391.55L278.55045 384.83124Q278.15982 385.1906 277.53482 385.5656Q276.92545 385.925 276.44107 386.09686L276.44107 385.08124Q277.31607 384.65936 277.97232 384.08124Q278.6442 383.4875 278.92545 382.925L279.59732 382.925L279.59732 391.55ZM282.62857 387.3156Q282.62857 385.78436 282.94107 384.8625Q283.25357 383.925 283.86295 383.425Q284.48795 382.925 285.42545 382.925Q286.11295 382.925 286.62857 383.20624Q287.15982 383.4875 287.50357 384.01874Q287.84732 384.53436 288.03482 385.28436Q288.22232 386.03436 288.22232 387.3156Q288.22232 388.83124 287.90982 389.7531Q287.61295 390.675 286.98795 391.1906Q286.37857 391.6906 285.42545 391.6906Q284.19107 391.6906 283.47232 390.8Q282.62857 389.7375 282.62857 387.3156ZM283.7067 387.3156Q283.7067 389.425 284.2067 390.1281Q284.7067 390.83124 285.42545 390.83124Q286.15982 390.83124 286.6442 390.1281Q287.1442 389.425 287.1442 387.3156Q287.1442 385.1906 286.6442 384.5031Q286.15982 383.8 285.40982 383.8Q284.69107 383.8 284.25357 384.40936Q283.7067 385.1906 283.7067 387.3156ZM289.62857 387.3156Q289.62857 385.78436 289.94107 384.8625Q290.25357 383.925 290.86295 383.425Q291.48795 382.925 292.42545 382.925Q293.11295 382.925 293.62857 383.20624Q294.15982 383.4875 294.50357 384.01874Q294.84732 384.53436 295.03482 385.28436Q295.22232 386.03436 295.22232 387.3156Q295.22232 388.83124 294.90982 389.7531Q294.61295 390.675 293.98795 391.1906Q293.37857 391.6906 292.42545 391.6906Q291.19107 391.6906 290.47232 390.8Q289.62857 389.7375 289.62857 387.3156ZM290.7067 387.3156Q290.7067 389.425 291.2067 390.1281Q291.7067 390.83124 292.42545 390.83124Q293.15982 390.83124 293.6442 390.1281Q294.1442 389.425 294.1442 387.3156Q294.1442 385.1906 293.6442 384.5031Q293.15982 383.8 292.40982 383.8Q291.69107 383.8 291.25357 384.40936Q290.7067 385.1906 290.7067 387.3156ZM296.62857 387.3156Q296.62857 385.78436 296.94107 384.8625Q297.25357 383.925 297.86295 383.425Q298.48795 382.925 299.42545 382.925Q300.11295 382.925 300.62857 383.20624Q301.15982 383.4875 301.50357 384.01874Q301.84732 384.53436 302.03482 385.28436Q302.22232 386.03436 302.22232 387.3156Q302.22232 388.83124 301.90982 389.7531Q301.61295 390.675 300.98795 391.1906Q300.37857 391.6906 299.42545 391.6906Q298.19107 391.6906 297.47232 390.8Q296.62857 389.7375 296.62857 387.3156ZM297.7067 387.3156Q297.7067 389.425 298.2067 390.1281Q298.7067 390.83124 299.42545 390.83124Q300.15982 390.83124 300.6442 390.1281Q301.1442 389.425 301.1442 387.3156Q301.1442 385.1906 300.6442 384.5031Q300.15982 383.8 299.40982 383.8Q298.69107 383.8 298.25357 384.40936Q297.7067 385.1906 297.7067 387.3156Z" fill-rule="nonzero"/><path fill="#000000" d="M371.96875 391.55L370.92188 391.55L370.92188 384.83124Q370.53125 385.1906 369.90625 385.5656Q369.29688 385.925 368.8125 386.09686L368.8125 385.08124Q369.6875 384.65936 370.34375 384.08124Q371.01562 383.4875 371.29688 382.925L371.96875 382.925L371.96875 391.55ZM375.0 387.3156Q375.0 385.78436 375.3125 384.8625Q375.625 383.925 376.23438 383.425Q376.85938 382.925 377.79688 382.925Q378.48438 382.925 379.0 383.20624Q379.53125 383.4875 379.875 384.01874Q380.21875 384.53436 380.40625 385.28436Q380.59375 386.03436 380.59375 387.3156Q380.59375 388.83124 380.28125 389.7531Q379.98438 390.675 379.35938 391.1906Q378.75 391.6906 377.79688 391.6906Q376.5625 391.6906 375.84375 390.8Q375.0 389.7375 375.0 387.3156ZM376.07812 387.3156Q376.07812 389.425 376.57812 390.1281Q377.07812 390.83124 377.79688 390.83124Q378.53125 390.83124 379.01562 390.1281Q379.51562 389.425 379.51562 387.3156Q379.51562 385.1906 379.01562 384.5031Q378.53125 383.8 377.78125 383.8Q377.0625 383.8 376.625 384.40936Q376.07812 385.1906 376.07812 387.3156ZM382.0 387.3156Q382.0 385.78436 382.3125 384.8625Q382.625 383.925 383.23438 383.425Q383.85938 382.925 384.79688 382.925Q385.48438 382.925 386.0 383.20624Q386.53125 383.4875 386.875 384.01874Q387.21875 384.53436 387.40625 385.28436Q387.59375 386.03436 387.59375 387.3156Q387.59375 388.83124 387.28125 389.7531Q386.98438 390.675 386.35938 391.1906Q385.75 391.6906 384.79688 391.6906Q383.5625 391.6906 382.84375 390.8Q382.0 389.7375 382.0 387.3156ZM383.07812 387.3156Q383.07812 389.425 383.57812 390.1281Q384.07812 390.83124 384.79688 390.83124Q385.53125 390.83124 386.01562 390.1281Q386.51562 389.425 386.51562 387.3156Q386.51562 385.1906 386.01562 384.5031Q385.53125 383.8 384.78125 383.8Q384.0625 383.8 383.625 384.40936Q383.07812 385.1906 383.07812 387.3156ZM389.0 387.3156Q389.0 385.78436 389.3125 384.8625Q389.625 383.925 390.23438 383.425Q390.85938 382.925 391.79688 382.925Q392.48438 382.925 393.0 383.20624Q393.53125 383.4875 393.875 384.01874Q394.21875 384.53436 394.40625 385.28436Q394.59375 386.03436 394.59375 387.3156Q394.59375 388.83124 394.28125 389.7531Q393.98438 390.675 393.35938 391.1906Q392.75 391.6906 391.79688 391.6906Q390.5625 391.6906 389.84375 390.8Q389.0 389.7375 389.0 387.3156ZM390.07812 387.3156Q390.07812 389.425 390.57812 390.1281Q391.07812 390.83124 391.79688 390.83124Q392.53125 390.83124 393.01562 390.1281Q393.51562 389.425 393.51562 387.3156Q393.51562 385.1906 393.01562 384.5031Q392.53125 383.8 391.78125 383.8Q391.0625 383.8 390.625 384.40936Q390.07812 385.1906 390.07812 387.3156ZM396.0 387.3156Q396.0 385.78436 396.3125 384.8625Q396.625 383.925 397.23438 383.425Q397.85938 382.925 398.79688 382.925Q399.48438 382.925 400.0 383.20624Q400.53125 383.4875 400.875 384.01874Q401.21875 384.53436 401.40625 385.28436Q401.59375 386.03436 401.59375 387.3156Q401.59375 388.83124 401.28125 389.7531Q400.98438 390.675 400.35938 391.1906Q399.75 391.6906 398.79688 391.6906Q397.5625 391.6906 396.84375 390.8Q396.0 389.7375 396.0 387.3156ZM397.07812 387.3156Q397.07812 389.425 397.57812 390.1281Q398.07812 390.83124 398.79688 390.83124Q399.53125 390.83124 400.01562 390.1281Q400.51562 389.425 400.51562 387.3156Q400.51562 385.1906 400.01562 384.5031Q399.53125 383.8 398.78125 383.8Q398.0625 383.8 397.625 384.40936Q397.07812 385.1906 397.07812 387.3156Z" fill-rule="nonzero"/><path fill="#000000" d="M464.34018 391.55L463.2933 391.55L463.2933 384.83124Q462.90268 385.1906 462.27768 385.5656Q461.6683 385.925 461.18393 386.09686L461.18393 385.08124Q462.05893 384.65936 462.71518 384.08124Q463.38705 383.4875 463.6683 382.925L464.34018 382.925L464.34018 391.55ZM467.37143 387.3156Q467.37143 385.78436 467.68393 384.8625Q467.99643 383.925 468.6058 383.425Q469.2308 382.925 470.1683 382.925Q470.8558 382.925 471.37143 383.20624Q471.90268 383.4875 472.24643 384.01874Q472.59018 384.53436 472.77768 385.28436Q472.96518 386.03436 472.96518 387.3156Q472.96518 388.83124 472.65268 389.7531Q472.3558 390.675 471.7308 391.1906Q471.12143 391.6906 470.1683 391.6906Q468.93393 391.6906 468.21518 390.8Q467.37143 389.7375 467.37143 387.3156ZM468.44955 387.3156Q468.44955 389.425 468.94955 390.1281Q469.44955 390.83124 470.1683 390.83124Q470.90268 390.83124 471.38705 390.1281Q471.88705 389.425 471.88705 387.3156Q471.88705 385.1906 471.38705 384.5031Q470.90268 383.8 470.15268 383.8Q469.43393 383.8 468.99643 384.40936Q468.44955 385.1906 468.44955 387.3156ZM474.37143 387.3156Q474.37143 385.78436 474.68393 384.8625Q474.99643 383.925 475.6058 383.425Q476.2308 382.925 477.1683 382.925Q477.8558 382.925 478.37143 383.20624Q478.90268 383.4875 479.24643 384.01874Q479.59018 384.53436 479.77768 385.28436Q479.96518 386.03436 479.96518 387.3156Q479.96518 388.83124 479.65268 389.7531Q479.3558 390.675 478.7308 391.1906Q478.12143 391.6906 477.1683 391.6906Q475.93393 391.6906 475.21518 390.8Q474.37143 389.7375 474.37143 387.3156ZM475.44955 387.3156Q475.44955 389.425 475.94955 390.1281Q476.44955 390.83124 477.1683 390.83124Q477.90268 390.83124 478.38705 390.1281Q478.88705 389.425 478.88705 387.3156Q478.88705 385.1906 478.38705 384.5031Q477.90268 383.8 477.15268 383.8Q476.43393 383.8 475.99643 384.40936Q475.44955 385.1906 475.44955 387.3156ZM481.37143 387.3156Q481.37143 385.78436 481.68393 384.8625Q481.99643 383.925 482.6058 383.425Q483.2308 382.925 484.1683 382.925Q484.8558 382.925 485.37143 383.20624Q485.90268 383.4875 486.24643 384.01874Q486.59018 384.53436 486.77768 385.28436Q486.96518 386.03436 486.96518 387.3156Q486.96518 388.83124 486.65268 389.7531Q486.3558 390.675 485.7308 391.1906Q485.12143 391.6906 484.1683 391.6906Q482.93393 391.6906 482.21518 390.8Q481.37143 389.7375 481.37143 387.3156ZM482.44955 387.3156Q482.44955 389.425 482.94955 390.1281Q483.44955 390.83124 484.1683 390.83124Q484.90268 390.83124 485.38705 390.1281Q485.88705 389.425 485.88705 387.3156Q485.88705 385.1906 485.38705 384.5031Q484.90268 383.8 484.15268 383.8Q483.43393 383.8 482.99643 384.40936Q482.44955 385.1906 482.44955 387.3156ZM488.37143 387.3156Q488.37143 385.78436 488.68393 384.8625Q488.99643 383.925 489.6058 383.425Q490.2308 382.925 491.1683 382.925Q491.8558 382.925 492.37143 383.20624Q492.90268 383.4875 493.24643 384.01874Q493.59018 384.53436 493.77768 385.28436Q493.96518 386.03436 493.96518 387.3156Q493.96518 388.83124 493.65268 389.7531Q493.3558 390.675 492.7308 391.1906Q492.12143 391.6906 491.1683 391.6906Q489.93393 391.6906 489.21518 390.8Q488.37143 389.7375 488.37143 387.3156ZM489.44955 387.3156Q489.44955 389.425 489.94955 390.1281Q490.44955 390.83124 491.1683 390.83124Q491.90268 390.83124 492.38705 390.1281Q492.88705 389.425 492.88705 387.3156Q492.88705 385.1906 492.38705 384.5031Q491.90268 383.8 491.15268 383.8Q490.43393 383.8 489.99643 384.40936Q489.44955 385.1906 489.44955 387.3156ZM495.37143 387.3156Q495.37143 385.78436 495.68393 384.8625Q495.99643 383.925 496.6058 383.425Q497.2308 382.925 498.1683 382.925Q498.8558 382.925 499.37143 383.20624Q499.90268 383.4875 500.24643 384.01874Q500.59018 384.53436 500.77768 385.28436Q500.96518 386.03436 500.96518 387.3156Q500.96518 388.83124 500.65268 389.7531Q500.3558 390.675 499.7308 391.1906Q499.12143 391.6906 498.1683 391.6906Q496.93393 391.6906 496.21518 390.8Q495.37143 389.7375 495.37143 387.3156ZM496.44955 387.3156Q496.44955 389.425 496.94955 390.1281Q497.44955 390.83124 498.1683 390.83124Q498.90268 390.83124 499.38705 390.1281Q499.88705 389.425 499.88705 387.3156Q499.88705 385.1906 499.38705 384.5031Q498.90268 383.8 498.15268 383.8Q497.43393 383.8 496.99643 384.40936Q496.44955 385.1906 496.44955 387.3156Z" fill-rule="nonzero"/><path fill="#000000" d="M556.7116 391.55L555.66473 391.55L555.66473 384.83124Q555.2741 385.1906 554.6491 385.5656Q554.03973 385.925 553.55536 386.09686L553.55536 385.08124Q554.43036 384.65936 555.0866 384.08124Q555.7585 383.4875 556.03973 382.925L556.7116 382.925L556.7116 391.55ZM559.74286 387.3156Q559.74286 385.78436 560.05536 384.8625Q560.36786 383.925 560.97723 383.425Q561.60223 382.925 562.53973 382.925Q563.22723 382.925 563.74286 383.20624Q564.2741 383.4875 564.61786 384.01874Q564.9616 384.53436 565.1491 385.28436Q565.3366 386.03436 565.3366 387.3156Q565.3366 388.83124 565.0241 389.7531Q564.72723 390.675 564.10223 391.1906Q563.49286 391.6906 562.53973 391.6906Q561.30536 391.6906 560.5866 390.8Q559.74286 389.7375 559.74286 387.3156ZM560.821 387.3156Q560.821 389.425 561.321 390.1281Q561.821 390.83124 562.53973 390.83124Q563.2741 390.83124 563.7585 390.1281Q564.2585 389.425 564.2585 387.3156Q564.2585 385.1906 563.7585 384.5031Q563.2741 383.8 562.5241 383.8Q561.80536 383.8 561.36786 384.40936Q560.821 385.1906 560.821 387.3156ZM566.74286 387.3156Q566.74286 385.78436 567.05536 384.8625Q567.36786 383.925 567.97723 383.425Q568.60223 382.925 569.53973 382.925Q570.22723 382.925 570.74286 383.20624Q571.2741 383.4875 571.61786 384.01874Q571.9616 384.53436 572.1491 385.28436Q572.3366 386.03436 572.3366 387.3156Q572.3366 388.83124 572.0241 389.7531Q571.72723 390.675 571.10223 391.1906Q570.49286 391.6906 569.53973 391.6906Q568.30536 391.6906 567.5866 390.8Q566.74286 389.7375 566.74286 387.3156ZM567.821 387.3156Q567.821 389.425 568.321 390.1281Q568.821 390.83124 569.53973 390.83124Q570.2741 390.83124 570.7585 390.1281Q571.2585 389.425 571.2585 387.3156Q571.2585 385.1906 570.7585 384.5031Q570.2741 383.8 569.5241 383.8Q568.80536 383.8 568.36786 384.40936Q567.821 385.1906 567.821 387.3156ZM573.74286 387.3156Q573.74286 385.78436 574.05536 384.8625Q574.36786 383.925 574.97723 383.425Q575.60223 382.925 576.53973 382.925Q577.22723 382.925 577.74286 383.20624Q578.2741 383.4875 578.61786 384.01874Q578.9616 384.53436 579.1491 385.28436Q579.3366 386.03436 579.3366 387.3156Q579.3366 388.83124 579.0241 389.7531Q578.72723 390.675 578.10223 391.1906Q577.49286 391.6906 576.53973 391.6906Q575.30536 391.6906 574.5866 390.8Q573.74286 389.7375 573.74286 387.3156ZM574.821 387.3156Q574.821 389.425 575.321 390.1281Q575.821 390.83124 576.53973 390.83124Q577.2741 390.83124 577.7585 390.1281Q578.2585 389.425 578.2585 387.3156Q578.2585 385.1906 577.7585 384.5031Q577.2741 383.8 576.5241 383.8Q575.80536 383.8 575.36786 384.40936Q574.821 385.1906 574.821 387.3156ZM580.74286 387.3156Q580.74286 385.78436 581.05536 384.8625Q581.36786 383.925 581.97723 383.425Q582.60223 382.925 583.53973 382.925Q584.22723 382.925 584.74286 383.20624Q585.2741 383.4875 585.61786 384.01874Q585.9616 384.53436 586.1491 385.28436Q586.3366 386.03436 586.3366 387.3156Q586.3366 388.83124 586.0241 389.7531Q585.72723 390.675 585.10223 391.1906Q584.49286 391.6906 583.53973 391.6906Q582.30536 391.6906 581.5866 390.8Q580.74286 389.7375 580.74286 387.3156ZM581.821 387.3156Q581.821 389.425 582.321 390.1281Q582.821 390.83124 583.53973 390.83124Q584.2741 390.83124 584.7585 390.1281Q585.2585 389.425 585.2585 387.3156Q585.2585 385.1906 584.7585 384.5031Q584.2741 383.8 583.5241 383.8Q582.80536 383.8 582.36786 384.40936Q581.821 385.1906 581.821 387.3156ZM587.74286 387.3156Q587.74286 385.78436 588.05536 384.8625Q588.36786 383.925 588.97723 383.425Q589.60223 382.925 590.53973 382.925Q591.22723 382.925 591.74286 383.20624Q592.2741 383.4875 592.61786 384.01874Q592.9616 384.53436 593.1491 385.28436Q593.3366 386.03436 593.3366 387.3156Q593.3366 388.83124 593.0241 389.7531Q592.72723 390.675 592.10223 391.1906Q591.49286 391.6906 590.53973 391.6906Q589.30536 391.6906 588.5866 390.8Q587.74286 389.7375 587.74286 387.3156ZM588.821 387.3156Q588.821 389.425 589.321 390.1281Q589.821 390.83124 590.53973 390.83124Q591.2741 390.83124 591.7585 390.1281Q592.2585 389.425 592.2585 387.3156Q592.2585 385.1906 591.7585 384.5031Q591.2741 383.8 590.5241 383.8Q589.80536 383.8 589.36786 384.40936Q588.821 385.1906 588.821 387.3156ZM594.74286 387.3156Q594.74286 385.78436 595.05536 384.8625Q595.36786 383.925 595.97723 383.425Q596.60223 382.925 597.53973 382.925Q598.22723 382.925 598.74286 383.20624Q599.2741 383.4875 599.61786 384.01874Q599.9616 384.53436 600.1491 385.28436Q600.3366 386.03436 600.3366 387.3156Q600.3366 388.83124 600.0241 389.7531Q599.72723 390.675 599.10223 391.1906Q598.49286 391.6906 597.53973 391.6906Q596.30536 391.6906 595.5866 390.8Q594.74286 389.7375 594.74286 387.3156ZM595.821 387.3156Q595.821 389.425 596.321 390.1281Q596.821 390.83124 597.53973 390.83124Q598.2741 390.83124 598.7585 390.1281Q599.2585 389.425 599.2585 387.3156Q599.2585 385.1906 598.7585 384.5031Q598.2741 383.8 597.5241 383.8Q596.80536 383.8 596.36786 384.40936Q595.821 385.1906 595.821 387.3156Z" fill-rule="nonzero"/><path fill="#000000" d="M649.083 391.55L648.03613 391.55L648.03613 384.83124Q647.6455 385.1906 647.0205 385.5656Q646.41113 385.925 645.92676 386.09686L645.92676 385.08124Q646.80176 384.65936 647.458 384.08124Q648.1299 383.4875 648.41113 382.925L649.083 382.925L649.083 391.55ZM652.11426 387.3156Q652.11426 385.78436 652.42676 384.8625Q652.73926 383.925 653.34863 383.425Q653.97363 382.925 654.91113 382.925Q655.59863 382.925 656.11426 383.20624Q656.6455 383.4875 656.98926 384.01874Q657.333 384.53436 657.5205 385.28436Q657.708 386.03436 657.708 387.3156Q657.708 388.83124 657.3955 389.7531Q657.09863 390.675 656.47363 391.1906Q655.86426 391.6906 654.91113 391.6906Q653.67676 391.6906 652.958 390.8Q652.11426 389.7375 652.11426 387.3156ZM653.1924 387.3156Q653.1924 389.425 653.6924 390.1281Q654.1924 390.83124 654.91113 390.83124Q655.6455 390.83124 656.1299 390.1281Q656.6299 389.425 656.6299 387.3156Q656.6299 385.1906 656.1299 384.5031Q655.6455 383.8 654.8955 383.8Q654.17676 383.8 653.73926 384.40936Q653.1924 385.1906 653.1924 387.3156ZM659.11426 387.3156Q659.11426 385.78436 659.42676 384.8625Q659.73926 383.925 660.34863 383.425Q660.97363 382.925 661.91113 382.925Q662.59863 382.925 663.11426 383.20624Q663.6455 383.4875 663.98926 384.01874Q664.333 384.53436 664.5205 385.28436Q664.708 386.03436 664.708 387.3156Q664.708 388.83124 664.3955 389.7531Q664.09863 390.675 663.47363 391.1906Q662.86426 391.6906 661.91113 391.6906Q660.67676 391.6906 659.958 390.8Q659.11426 389.7375 659.11426 387.3156ZM660.1924 387.3156Q660.1924 389.425 660.6924 390.1281Q661.1924 390.83124 661.91113 390.83124Q662.6455 390.83124 663.1299 390.1281Q663.6299 389.425 663.6299 387.3156Q663.6299 385.1906 663.1299 384.5031Q662.6455 383.8 661.8955 383.8Q661.17676 383.8 660.73926 384.40936Q660.1924 385.1906 660.1924 387.3156ZM666.11426 387.3156Q666.11426 385.78436 666.42676 384.8625Q666.73926 383.925 667.34863 383.425Q667.97363 382.925 668.91113 382.925Q669.59863 382.925 670.11426 383.20624Q670.6455 383.4875 670.98926 384.01874Q671.333 384.53436 671.5205 385.28436Q671.708 386.03436 671.708 387.3156Q671.708 388.83124 671.3955 389.7531Q671.09863 390.675 670.47363 391.1906Q669.86426 391.6906 668.91113 391.6906Q667.67676 391.6906 666.958 390.8Q666.11426 389.7375 666.11426 387.3156ZM667.1924 387.3156Q667.1924 389.425 667.6924 390.1281Q668.1924 390.83124 668.91113 390.83124Q669.6455 390.83124 670.1299 390.1281Q670.6299 389.425 670.6299 387.3156Q670.6299 385.1906 670.1299 384.5031Q669.6455 383.8 668.8955 383.8Q668.17676 383.8 667.73926 384.40936Q667.1924 385.1906 667.1924 387.3156ZM673.11426 387.3156Q673.11426 385.78436 673.42676 384.8625Q673.73926 383.925 674.34863 383.425Q674.97363 382.925 675.91113 382.925Q676.59863 382.925 677.11426 383.20624Q677.6455 383.4875 677.98926 384.01874Q678.333 384.53436 678.5205 385.28436Q678.708 386.03436 678.708 387.3156Q678.708 388.83124 678.3955 389.7531Q678.09863 390.675 677.47363 391.1906Q676.86426 391.6906 675.91113 391.6906Q674.67676 391.6906 673.958 390.8Q673.11426 389.7375 673.11426 387.3156ZM674.1924 387.3156Q674.1924 389.425 674.6924 390.1281Q675.1924 390.83124 675.91113 390.83124Q676.6455 390.83124 677.1299 390.1281Q677.6299 389.425 677.6299 387.3156Q677.6299 385.1906 677.1299 384.5031Q676.6455 383.8 675.8955 383.8Q675.17676 383.8 674.73926 384.40936Q674.1924 385.1906 674.1924 387.3156ZM680.11426 387.3156Q680.11426 385.78436 680.42676 384.8625Q680.73926 383.925 681.34863 383.425Q681.97363 382.925 682.91113 382.925Q683.59863 382.925 684.11426 383.20624Q684.6455 383.4875 684.98926 384.01874Q685.333 384.53436 685.5205 385.28436Q685.708 386.03436 685.708 387.3156Q685.708 388.83124 685.3955 389.7531Q685.09863 390.675 684.47363 391.1906Q683.86426 391.6906 682.91113 391.6906Q681.67676 391.6906 680.958 390.8Q680.11426 389.7375 680.11426 387.3156ZM681.1924 387.3156Q681.1924 389.425 681.6924 390.1281Q682.1924 390.83124 682.91113 390.83124Q683.6455 390.83124 684.1299 390.1281Q684.6299 389.425 684.6299 387.3156Q684.6299 385.1906 684.1299 384.5031Q683.6455 383.8 682.8955 383.8Q682.17676 383.8 681.73926 384.40936Q681.1924 385.1906 681.1924 387.3156ZM687.11426 387.3156Q687.11426 385.78436 687.42676 384.8625Q687.73926 383.925 688.34863 383.425Q688.97363 382.925 689.91113 382.925Q690.59863 382.925 691.11426 383.20624Q691.6455 383.4875 691.98926 384.01874Q692.333 384.53436 692.5205 385.28436Q692.708 386.03436 692.708 387.3156Q692.708 388.83124 692.3955 389.7531Q692.09863 390.675 691.47363 391.1906Q690.86426 391.6906 689.91113 391.6906Q688.67676 391.6906 687.958 390.8Q687.11426 389.7375 687.11426 387.3156ZM688.1924 387.3156Q688.1924 389.425 688.6924 390.1281Q689.1924 390.83124 689.91113 390.83124Q690.6455 390.83124 691.1299 390.1281Q691.6299 389.425 691.6299 387.3156Q691.6299 385.1906 691.1299 384.5031Q690.6455 383.8 689.8955 383.8Q689.17676 383.8 688.73926 384.40936Q688.1924 385.1906 688.1924 387.3156ZM694.11426 387.3156Q694.11426 385.78436 694.42676 384.8625Q694.73926 383.925 695.34863 383.425Q695.97363 382.925 696.91113 382.925Q697.59863 382.925 698.11426 383.20624Q698.6455 383.4875 698.98926 384.01874Q699.333 384.53436 699.5205 385.28436Q699.708 386.03436 699.708 387.3156Q699.708 388.83124 699.3955 389.7531Q699.09863 390.675 698.47363 391.1906Q697.86426 391.6906 696.91113 391.6906Q695.67676 391.6906 694.958 390.8Q694.11426 389.7375 694.11426 387.3156ZM695.1924 387.3156Q695.1924 389.425 695.6924 390.1281Q696.1924 390.83124 696.91113 390.83124Q697.6455 390.83124 698.1299 390.1281Q698.6299 389.425 698.6299 387.3156Q698.6299 385.1906 698.1299 384.5031Q697.6455 383.8 696.8955 383.8Q696.17676 383.8 695.73926 384.40936Q695.1924 385.1906 695.1924 387.3156Z" fill-rule="nonzero"/><path stroke="#4285f4" stroke-width="4.0" stroke-linecap="butt" d="M310.0 68.416664L322.0 68.416664" fill-rule="nonzero"/><path fill="#1a1a1a" d="M330.89062 72.416664L330.89062 63.822914L332.60938 63.822914L334.64062 69.90104Q334.92188 70.760414 335.04688 71.18229Q335.1875 70.71354 335.5 69.80729L337.5625 63.822914L339.09375 63.822914L339.09375 72.416664L338.0 72.416664L338.0 65.229164L335.5 72.416664L334.46875 72.416664L331.98438 65.104164L331.98438 72.416664L330.89062 72.416664ZM345.04688 70.416664L346.14062 70.541664Q345.89062 71.49479 345.1875 72.02604Q344.48438 72.55729 343.40625 72.55729Q342.04688 72.55729 341.23438 71.71354Q340.4375 70.86979 340.4375 69.354164Q340.4375 67.791664 341.25 66.93229Q342.0625 66.05729 343.34375 66.05729Q344.59375 66.05729 345.375 66.90104Q346.17188 67.74479 346.17188 69.291664Q346.17188 69.385414 346.17188 69.572914L341.53125 69.572914Q341.59375 70.604164 342.10938 71.15104Q342.625 71.68229 343.40625 71.68229Q343.98438 71.68229 344.39062 71.385414Q344.8125 71.072914 345.04688 70.416664ZM341.59375 68.71354L345.0625 68.71354Q345.0 67.916664 344.67188 67.52604Q344.15625 66.916664 343.35938 66.916664Q342.625 66.916664 342.125 67.40104Q341.64062 67.885414 341.59375 68.71354ZM347.78125 72.416664L347.78125 66.197914L348.73438 66.197914L348.73438 67.135414Q349.09375 66.479164 349.39062 66.27604Q349.70312 66.05729 350.07812 66.05729Q350.60938 66.05729 351.15625 66.385414L350.79688 67.36979Q350.40625 67.135414 350.03125 67.135414Q349.67188 67.135414 349.39062 67.354164Q349.125 67.55729 349.01562 67.93229Q348.82812 68.49479 348.82812 69.15104L348.82812 72.416664L347.78125 72.416664ZM351.59375 72.93229L352.625 73.08854Q352.6875 73.55729 352.98438 73.77604Q353.375 74.072914 354.04688 74.072914Q354.78125 74.072914 355.17188 73.77604Q355.57812 73.479164 355.71875 72.96354Q355.8125 72.635414 355.79688 71.604164Q355.10938 72.416664 354.07812 72.416664Q352.79688 72.416664 352.09375 71.49479Q351.39062 70.55729 351.39062 69.27604Q351.39062 68.385414 351.70312 67.635414Q352.03125 66.86979 352.64062 66.46354Q353.25 66.05729 354.07812 66.05729Q355.1875 66.05729 355.90625 66.947914L355.90625 66.197914L356.875 66.197914L356.875 71.572914Q356.875 73.02604 356.57812 73.635414Q356.28125 74.24479 355.64062 74.58854Q355.0 74.947914 354.0625 74.947914Q352.95312 74.947914 352.26562 74.447914Q351.57812 73.947914 351.59375 72.93229ZM352.46875 69.197914Q352.46875 70.416664 352.95312 70.979164Q353.4375 71.541664 354.17188 71.541664Q354.90625 71.541664 355.39062 70.979164Q355.89062 70.416664 355.89062 69.229164Q355.89062 68.08854 355.375 67.510414Q354.875 66.93229 354.15625 66.93229Q353.45312 66.93229 352.95312 67.510414Q352.46875 68.072914 352.46875 69.197914ZM363.04688 70.416664L364.14062 70.541664Q363.89062 71.49479 363.1875 72.02604Q362.48438 72.55729 361.40625 72.55729Q360.04688 72.55729 359.23438 71.71354Q358.4375 70.86979 358.4375 69.354164Q358.4375 67.791664 359.25 66.93229Q360.0625 66.05729 361.34375 66.05729Q362.59375 66.05729 363.375 66.90104Q364.17188 67.74479 364.17188 69.291664Q364.17188 69.385414 364.17188 69.572914L359.53125 69.572914Q359.59375 70.604164 360.10938 71.15104Q360.625 71.68229 361.40625 71.68229Q361.98438 71.68229 362.39062 71.385414Q362.8125 71.072914 363.04688 70.416664ZM359.59375 68.71354L363.0625 68.71354Q363.0 67.916664 362.67188 67.52604Q362.15625 66.916664 361.35938 66.916664Q360.625 66.916664 360.125 67.40104Q359.64062 67.885414 359.59375 68.71354Z" fill-rule="nonzero"/><path stroke="#ea4335" stroke-width="4.0" stroke-linecap="butt" d="M381.0 68.416664L393.0 68.416664" fill-rule="nonzero"/><path fill="#1a1a1a" d="M401.92188 72.416664L401.92188 63.822914L403.07812 63.822914L407.59375 70.572914L407.59375 63.822914L408.6875 63.822914L408.6875 72.416664L407.51562 72.416664L403.0 65.666664L403.0 72.416664L401.92188 72.416664ZM414.85938 71.65104Q414.26562 72.15104 413.71875 72.354164Q413.1875 72.55729 412.5625 72.55729Q411.53125 72.55729 410.98438 72.05729Q410.4375 71.55729 410.4375 70.77604Q410.4375 70.322914 410.64062 69.947914Q410.84375 69.55729 411.1875 69.33854Q411.53125 69.104164 411.95312 68.99479Q412.25 68.90104 412.89062 68.822914Q414.15625 68.68229 414.76562 68.46354Q414.76562 68.24479 414.76562 68.197914Q414.76562 67.541664 414.46875 67.27604Q414.0625 66.93229 413.26562 66.93229Q412.53125 66.93229 412.17188 67.197914Q411.8125 67.447914 411.64062 68.104164L410.60938 67.96354Q410.75 67.30729 411.07812 66.90104Q411.40625 66.49479 412.01562 66.27604Q412.625 66.05729 413.42188 66.05729Q414.21875 66.05729 414.71875 66.24479Q415.21875 66.43229 415.45312 66.71354Q415.6875 66.99479 415.78125 67.43229Q415.82812 67.697914 415.82812 68.40104L415.82812 69.80729Q415.82812 71.27604 415.89062 71.666664Q415.96875 72.05729 416.17188 72.416664L415.0625 72.416664Q414.90625 72.08854 414.85938 71.65104ZM414.76562 69.291664Q414.1875 69.52604 413.04688 69.697914Q412.39062 69.791664 412.125 69.916664Q411.85938 70.02604 411.70312 70.24479Q411.5625 70.46354 411.5625 70.74479Q411.5625 71.166664 411.875 71.447914Q412.20312 71.729164 412.8125 71.729164Q413.42188 71.729164 413.89062 71.46354Q414.375 71.197914 414.59375 70.729164Q414.76562 70.36979 414.76562 69.68229L414.76562 69.291664ZM417.79688 65.041664L417.79688 63.822914L418.85938 63.822914L418.85938 65.041664L417.79688 65.041664ZM417.79688 72.416664L417.79688 66.197914L418.85938 66.197914L418.85938 72.416664L417.79688 72.416664ZM422.51562 72.416664L420.15625 66.197914L421.26562 66.197914L422.60938 69.916664Q422.8125 70.52604 423.0 71.166664Q423.14062 70.68229 423.39062 69.99479L424.78125 66.197914L425.85938 66.197914L423.5 72.416664L422.51562 72.416664ZM431.04688 70.416664L432.14062 70.541664Q431.89062 71.49479 431.1875 72.02604Q430.48438 72.55729 429.40625 72.55729Q428.04688 72.55729 427.23438 71.71354Q426.4375 70.86979 426.4375 69.354164Q426.4375 67.791664 427.25 66.93229Q428.0625 66.05729 429.34375 66.05729Q430.59375 66.05729 431.375 66.90104Q432.17188 67.74479 432.17188 69.291664Q432.17188 69.385414 432.17188 69.572914L427.53125 69.572914Q427.59375 70.604164 428.10938 71.15104Q428.625 71.68229 429.40625 71.68229Q429.98438 71.68229 430.39062 71.385414Q430.8125 71.072914 431.04688 70.416664ZM427.59375 68.71354L431.0625 68.71354Q431.0 67.916664 430.67188 67.52604Q430.15625 66.916664 429.35938 66.916664Q428.625 66.916664 428.125 67.40104Q427.64062 67.885414 427.59375 68.71354Z" fill-rule="nonzero"/><path fill="#757575" d="M23.934376 41.45L23.934376 27.1375L26.79375 27.1375L30.16875 37.2625Q30.6375 38.684376 30.85625 39.3875Q31.10625 38.60625 31.621876 37.090626L35.04375 27.1375L37.590626 27.1375L37.590626 41.45L35.778126 41.45L35.778126 29.465626L31.60625 41.45L29.903126 41.45L25.7625 29.2625L25.7625 41.45L23.934376 41.45ZM47.871876 38.10625L49.684376 38.340626Q49.2625 39.91875 48.090626 40.809376Q46.934376 41.684376 45.121876 41.684376Q42.85625 41.684376 41.5125 40.29375Q40.184376 38.8875 40.184376 36.35625Q40.184376 33.73125 41.528126 32.29375Q42.871876 30.840626 45.028126 30.840626Q47.10625 30.840626 48.41875 32.2625Q49.746876 33.66875 49.746876 36.246876Q49.746876 36.403126 49.73125 36.715626L41.996876 36.715626Q42.090626 38.41875 42.965626 39.325Q43.840626 40.23125 45.1375 40.23125Q46.10625 40.23125 46.778126 39.73125Q47.465626 39.215626 47.871876 38.10625ZM42.090626 35.2625L47.8875 35.2625Q47.778126 33.965626 47.23125 33.309376Q46.3875 32.29375 45.04375 32.29375Q43.840626 32.29375 43.0125 33.10625Q42.184376 33.903126 42.090626 35.2625ZM51.746876 41.45L51.746876 31.075L53.325 31.075L53.325 32.653126Q53.934376 31.54375 54.45 31.2Q54.965626 30.840626 55.575 30.840626Q56.465626 30.840626 57.3875 31.403126L56.778126 33.04375Q56.1375 32.653126 55.496876 32.653126Q54.91875 32.653126 54.45 33.0125Q53.996876 33.35625 53.79375 33.965626Q53.5125 34.903126 53.5125 36.0125L53.5125 41.45L51.746876 41.45ZM58.45 42.309376L60.153126 42.559376Q60.2625 43.35625 60.746876 43.715626Q61.403126 44.2 62.54375 44.2Q63.7625 44.2 64.41875 43.715626Q65.09062 43.23125 65.325 42.35625Q65.46562 41.809376 65.45 40.090626Q64.29375 41.45 62.575 41.45Q60.434376 41.45 59.2625 39.903126Q58.090626 38.35625 58.090626 36.2Q58.090626 34.715626 58.621876 33.465626Q59.16875 32.215626 60.184376 31.528126Q61.215626 30.840626 62.590626 30.840626Q64.41875 30.840626 65.62187 32.325L65.62187 31.075L67.23125 31.075L67.23125 40.04375Q67.23125 42.465626 66.73125 43.465626Q66.24687 44.48125 65.16875 45.059376Q64.10625 45.653126 62.54375 45.653126Q60.7 45.653126 59.54375 44.825Q58.403126 43.996876 58.45 42.309376ZM59.903126 36.075Q59.903126 38.121876 60.715626 39.059376Q61.528126 39.996876 62.746876 39.996876Q63.95 39.996876 64.7625 39.059376Q65.59062 38.121876 65.59062 36.1375Q65.59062 34.23125 64.74687 33.2625Q63.903126 32.29375 62.715626 32.29375Q61.54375 32.29375 60.715626 33.246876Q59.903126 34.2 59.903126 36.075ZM76.87187 38.10625L78.68437 38.340626Q78.2625 39.91875 77.09062 40.809376Q75.93437 41.684376 74.12187 41.684376Q71.85625 41.684376 70.5125 40.29375Q69.18437 38.8875 69.18437 36.35625Q69.18437 33.73125 70.52812 32.29375Q71.87187 30.840626 74.02812 30.840626Q76.10625 30.840626 77.41875 32.2625Q78.74687 33.66875 78.74687 36.246876Q78.74687 36.403126 78.73125 36.715626L70.99687 36.715626Q71.09062 38.41875 71.96562 39.325Q72.84062 40.23125 74.1375 40.23125Q75.10625 40.23125 75.77812 39.73125Q76.46562 39.215626 76.87187 38.10625ZM71.09062 35.2625L76.8875 35.2625Q76.77812 33.965626 76.23125 33.309376Q75.3875 32.29375 74.04375 32.29375Q72.84062 32.29375 72.0125 33.10625Q71.18437 33.903126 71.09062 35.2625ZM89.65312 41.45L85.7 31.075L87.55937 31.075L89.79375 37.29375Q90.15312 38.29375 90.45 39.371876Q90.68437 38.559376 91.10625 37.403126L93.40312 31.075L95.21562 31.075L91.29375 41.45L89.65312 41.45ZM96.05937 38.35625L97.80937 38.075Q97.95 39.121876 98.62187 39.684376Q99.29375 40.23125 100.49687 40.23125Q101.7 40.23125 102.27812 39.746876Q102.87187 39.246876 102.87187 38.590626Q102.87187 37.996876 102.35625 37.653126Q101.99687 37.41875 100.55937 37.059376Q98.62187 36.559376 97.87187 36.215626Q97.1375 35.85625 96.74687 35.23125Q96.35625 34.590626 96.35625 33.825Q96.35625 33.1375 96.66875 32.54375Q96.99687 31.95 97.54375 31.559376Q97.95 31.2625 98.65312 31.059376Q99.37187 30.840626 100.18437 30.840626Q101.40312 30.840626 102.325 31.2Q103.24687 31.54375 103.68437 32.153126Q104.12187 32.746876 104.29375 33.746876L102.575 33.98125Q102.45 33.184376 101.8875 32.746876Q101.325 32.29375 100.30937 32.29375Q99.09062 32.29375 98.575 32.7Q98.05937 33.090626 98.05937 33.621876Q98.05937 33.965626 98.27812 34.246876Q98.48125 34.528126 98.95 34.715626Q99.21562 34.809376 100.49687 35.153126Q102.37187 35.653126 103.10625 35.98125Q103.84062 36.29375 104.2625 36.903126Q104.68437 37.496876 104.68437 38.403126Q104.68437 39.278126 104.16875 40.059376Q103.65312 40.840626 102.68437 41.2625Q101.71562 41.684376 100.49687 41.684376Q98.48125 41.684376 97.41875 40.840626Q96.35625 39.996876 96.05937 38.35625ZM112.98125 41.45L112.98125 27.1375L114.91875 27.1375L122.43437 38.371876L122.43437 27.1375L124.24687 27.1375L124.24687 41.45L122.30937 41.45L114.79375 30.2L114.79375 41.45L112.98125 41.45ZM133.54375 40.16875Q132.55937 40.996876 131.65312 41.340626Q130.74687 41.684376 129.71562 41.684376Q128.0125 41.684376 127.09062 40.85625Q126.16875 40.0125 126.16875 38.715626Q126.16875 37.95 126.5125 37.325Q126.87187 36.7 127.43437 36.325Q127.99687 35.934376 128.7 35.73125Q129.21562 35.60625 130.2625 35.465626Q132.3875 35.215626 133.3875 34.871876Q133.40312 34.5125 133.40312 34.403126Q133.40312 33.340626 132.90312 32.8875Q132.23125 32.29375 130.90312 32.29375Q129.65312 32.29375 129.05937 32.73125Q128.48125 33.16875 128.2 34.278126L126.48125 34.04375Q126.71562 32.934376 127.24687 32.2625Q127.77812 31.575 128.79375 31.215626Q129.80937 30.840626 131.15312 30.840626Q132.48125 30.840626 133.30937 31.153126Q134.1375 31.465626 134.52812 31.95Q134.91875 32.41875 135.075 33.1375Q135.16875 33.590626 135.16875 34.7625L135.16875 37.10625Q135.16875 39.559376 135.27812 40.215626Q135.3875 40.85625 135.73125 41.45L133.8875 41.45Q133.62187 40.903126 133.54375 40.16875ZM133.3875 36.246876Q132.43437 36.6375 130.5125 36.903126Q129.43437 37.059376 128.98125 37.2625Q128.54375 37.45 128.29375 37.825Q128.04375 38.2 128.04375 38.66875Q128.04375 39.371876 128.575 39.840626Q129.10625 40.309376 130.1375 40.309376Q131.15312 40.309376 131.93437 39.871876Q132.73125 39.41875 133.10625 38.653126Q133.3875 38.04375 133.3875 36.8875L133.3875 36.246876ZM137.77812 29.153126L137.77812 27.1375L139.54375 27.1375L139.54375 29.153126L137.77812 29.153126ZM137.77812 41.45L137.77812 31.075L139.54375 31.075L139.54375 41.45L137.77812 41.45ZM144.65312 41.45L140.7 31.075L142.55937 31.075L144.79375 37.29375Q145.15312 38.29375 145.45 39.371876Q145.68437 38.559376 146.10625 37.403126L148.40312 31.075L150.21562 31.075L146.29375 41.45L144.65312 41.45ZM158.87187 38.10625L160.68437 38.340626Q160.2625 39.91875 159.09062 40.809376Q157.93437 41.684376 156.12187 41.684376Q153.85625 41.684376 152.5125 40.29375Q151.18437 38.8875 151.18437 36.35625Q151.18437 33.73125 152.52812 32.29375Q153.87187 30.840626 156.02812 30.840626Q158.10625 30.840626 159.41875 32.2625Q160.74687 33.66875 160.74687 36.246876Q160.74687 36.403126 160.73125 36.715626L152.99687 36.715626Q153.09062 38.41875 153.96562 39.325Q154.84062 40.23125 156.1375 40.23125Q157.10625 40.23125 157.77812 39.73125Q158.46562 39.215626 158.87187 38.10625ZM153.09062 35.2625L158.8875 35.2625Q158.77812 33.965626 158.23125 33.309376Q157.3875 32.29375 156.04375 32.29375Q154.84062 32.29375 154.0125 33.10625Q153.18437 33.903126 153.09062 35.2625Z" fill-rule="nonzero"/></svg>